<?xml version="1.0" standalone="no"?>
<!DOCTYPE svg PUBLIC "-//W3C//DTD SVG 20010904//EN"
 "http://www.w3.org/TR/2001/REC-SVG-20010904/DTD/svg10.dtd">
<svg version="1.0" xmlns="http://www.w3.org/2000/svg"
 width="920.000000pt" height="249.000000pt" viewBox="0 0 920.000000 249.000000"
 preserveAspectRatio="xMidYMid meet">

<g transform="translate(0.000000,249.000000) scale(0.100000,-0.100000)"
fill="#E51013" stroke="none">
<path d="M0 1247 l0 -1244 93 13 c50 7 138 19 194 25 l103 13 0 675 c0 396 4
671 9 666 5 -6 61 -163 124 -350 182 -538 316 -927 319 -930 2 -2 95 7 208 21
113 13 206 24 208 24 1 0 2 524 2 1165 l0 1165 -190 0 -190 0 -2 -707 c-2
-390 -6 -701 -10 -693 -5 12 -240 669 -455 1273 l-45 127 -184 0 -184 0 0
-1243z"/>
<path d="M1640 1342 l0 -1147 158 12 c395 29 822 64 870 69 l52 6 0 184 0 184
-37 0 c-21 0 -173 -9 -338 -20 -165 -11 -303 -20 -307 -20 -5 0 -8 131 -8 290
l0 290 50 1 c28 1 59 3 70 4 11 1 106 3 210 4 l190 1 0 190 0 190 -260 0 -260
0 0 260 0 260 345 0 345 0 0 195 0 195 -540 0 -540 0 0 -1148z"/>
<path d="M2970 2295 l0 -195 200 0 200 0 0 -895 0 -895 195 0 195 0 0 895 0
895 200 0 200 0 0 195 0 195 -595 0 -595 0 0 -195z"/>
<path d="M4412 1413 l3 -1078 188 -2 187 -2 0 445 0 444 265 0 265 0 0 190 0
190 -265 0 -265 0 0 250 0 250 353 2 352 3 3 193 2 192 -545 0 -545 0 2 -1077z"/>
<path d="M5740 1401 l0 -1089 123 -6 c301 -14 750 -37 835 -43 l92 -6 0 190 0
190 -82 6 c-46 3 -194 12 -330 18 l-248 13 0 908 0 908 -195 0 -195 0 0 -1089z"/>
<path d="M7120 1360 c0 -921 2 -1130 13 -1130 27 0 284 -20 325 -26 l42 -5 0
1145 0 1146 -190 0 -190 0 0 -1130z"/>
<path d="M7850 2443 c10 -27 93 -241 185 -478 91 -236 185 -479 207 -538 l41
-108 -25 -57 c-14 -31 -125 -286 -248 -565 -122 -279 -220 -510 -218 -512 2
-3 83 -14 179 -25 96 -11 186 -22 200 -25 21 -5 28 -1 38 22 7 15 66 152 131
303 156 364 142 335 151 313 13 -31 208 -534 241 -619 l32 -82 70 -12 c124
-21 361 -58 362 -57 1 1 -16 47 -37 102 -150 397 -405 1072 -427 1131 l-26 71
58 139 c32 76 71 171 87 209 16 39 100 241 187 450 l159 380 -201 3 c-110 1
-205 1 -212 -2 -6 -2 -71 -149 -144 -325 -73 -177 -136 -318 -140 -314 -4 4
-63 151 -130 326 l-123 317 -208 0 -207 0 18 -47z"/>
</g>
</svg>
